<svg xmlns="http://www.w3.org/2000/svg" viewBox="0 0 250 109.1"><defs><style>.cls-1{fill:#f90;}</style></defs><g id="Capa_2" data-name="Capa 2"><g id="Capa_1-2" data-name="Capa 1"><path d="M234.36,1.28a14.36,14.36,0,0,1,14.36,14.36V93.45a14.36,14.36,0,0,1-14.36,14.37H15.64A14.36,14.36,0,0,1,1.28,93.45V15.64A14.36,14.36,0,0,1,15.64,1.28H234.36m0-1.28H15.64A15.66,15.66,0,0,0,0,15.64V93.45A15.66,15.66,0,0,0,15.64,109.1H234.36A15.66,15.66,0,0,0,250,93.45V15.64A15.66,15.66,0,0,0,234.36,0Z"/><path d="M102.51,13H108v25.2h-5.38V35.81a6.13,6.13,0,0,1-5.48,2.79A7.12,7.12,0,0,1,91.36,36a10.53,10.53,0,0,1-2.16-7,10.51,10.51,0,0,1,2.16-7,7.1,7.1,0,0,1,5.81-2.59,6.19,6.19,0,0,1,5.34,2.62Zm.11,16.07q0-5.13-3.93-5.13a3.37,3.37,0,0,0-2.87,1.36,6.43,6.43,0,0,0-1,3.91q0,5,3.9,5T102.62,29.05Z"/><path d="M112.1,36a9.33,9.33,0,0,1-2.62-6.93,9.58,9.58,0,1,1,19.14,0A9.36,9.36,0,0,1,126,36a10.58,10.58,0,0,1-13.94,0ZM122,32.87a6.12,6.12,0,0,0,1-3.82,6.1,6.1,0,0,0-1-3.82,4,4,0,0,0-5.91,0,6,6,0,0,0-1,3.82,6.06,6.06,0,0,0,1,3.82,4,4,0,0,0,5.91,0Z"/><path d="M145.76,21.24a6.8,6.8,0,0,1,1.72,5v12H142V27.31q0-3.11-2.94-3.11a3.37,3.37,0,0,0-2.48,1,3.78,3.78,0,0,0-1,2.8V38.18H130V19.92h5.38V22.5a6.69,6.69,0,0,1,5.73-3A6.19,6.19,0,0,1,145.76,21.24Z"/><path d="M161.67,38.18a4.7,4.7,0,0,1-.46-2C160,37.78,158,38.6,155.37,38.6a7.43,7.43,0,0,1-4.83-1.48A5,5,0,0,1,148.72,33q0-5.1,7.15-5.7l2.86-.24c1.58-.17,2.37-.77,2.37-1.81,0-1.23-.93-1.84-2.79-1.84a4.17,4.17,0,0,0-2.39.51,2.59,2.59,0,0,0-.83,1.9H149.6q.5-6.34,8.74-6.34t8.14,5.63v9.7a5.92,5.92,0,0,0,.75,3.36ZM160,33.91A3.69,3.69,0,0,0,161.1,31V29.65a3.08,3.08,0,0,1-1.84.71l-2.26.25c-1.77.18-2.66.92-2.66,2.19a1.85,1.85,0,0,0,.71,1.52,3.09,3.09,0,0,0,2,.57A4.32,4.32,0,0,0,160,33.91Z"/><path d="M178.06,36a9.49,9.49,0,0,1-2.55-6.93,9.48,9.48,0,0,1,2.55-7,9.11,9.11,0,0,1,6.83-2.59,9.37,9.37,0,0,1,6.14,2,7.76,7.76,0,0,1,2.78,5.32h-5.49A3.08,3.08,0,0,0,184.89,24c-2.53,0-3.79,1.68-3.79,5.06s1.26,5,3.79,5A3.15,3.15,0,0,0,188.43,31h5.48a7.63,7.63,0,0,1-2.72,5.56,9.57,9.57,0,0,1-6.3,2.05A9.06,9.06,0,0,1,178.06,36Z"/><path d="M196.92,36a9.33,9.33,0,0,1-2.62-6.93,9.58,9.58,0,1,1,19.14,0A9.36,9.36,0,0,1,210.86,36a10.58,10.58,0,0,1-13.94,0Zm9.91-3.11a6.12,6.12,0,0,0,1-3.82,6.1,6.1,0,0,0-1-3.82,4,4,0,0,0-5.91,0,6,6,0,0,0-1,3.82,6.06,6.06,0,0,0,1,3.82,4,4,0,0,0,5.91,0Z"/><path d="M230.58,21.24a6.8,6.8,0,0,1,1.72,5v12h-5.52V27.31q0-3.11-2.94-3.11a3.37,3.37,0,0,0-2.48,1,3.78,3.78,0,0,0-1,2.8V38.18h-5.52V19.92h5.38V22.5a6.69,6.69,0,0,1,5.73-3A6.19,6.19,0,0,1,230.58,21.24Z"/><path d="M91.75,66.77a9.53,9.53,0,0,1-2.55-6.94,9.49,9.49,0,0,1,2.55-7,9.18,9.18,0,0,1,6.83-2.58,9.34,9.34,0,0,1,6.14,2,7.78,7.78,0,0,1,2.78,5.33H102a3.08,3.08,0,0,0-3.43-2.8c-2.52,0-3.79,1.69-3.79,5.06s1.27,5,3.79,5a3.16,3.16,0,0,0,3.54-3.08h5.49a7.72,7.72,0,0,1-2.73,5.56,9.53,9.53,0,0,1-6.3,2A9.09,9.09,0,0,1,91.75,66.77Z"/><path d="M110.61,66.77A9.37,9.37,0,0,1,108,59.83a9.58,9.58,0,1,1,19.15,0,9.84,9.84,0,0,1-16.53,6.94Zm9.91-3.11a6.15,6.15,0,0,0,1-3.83,6.12,6.12,0,0,0-1-3.82,4,4,0,0,0-5.91,0,6.06,6.06,0,0,0-1,3.82,6.09,6.09,0,0,0,1,3.83,4,4,0,0,0,5.91,0Z"/><path d="M144.28,52A6.83,6.83,0,0,1,146,57V69h-5.52V58.1c0-2.08-1-3.11-2.94-3.11a3.35,3.35,0,0,0-2.47,1,3.77,3.77,0,0,0-1,2.79V69h-5.52V50.7h5.37v2.59a6.67,6.67,0,0,1,5.74-3A6.18,6.18,0,0,1,144.28,52Z"/><path d="M149.35,49.64A5.9,5.9,0,0,1,151,45.25a6.78,6.78,0,0,1,4.94-1.63,24.39,24.39,0,0,1,2.62.15v4.1h-1.49q-2.19,0-2.19,2v.88h3.61v4h-3.61V69h-5.53V54.74h-2.72v-4h2.72Zm11.44,1.06h5.52V69h-5.52Zm5.41-6.76v4.68h-5.27V43.94Z"/><path d="M180.59,69a4.9,4.9,0,0,1-.46-2.06q-1.83,2.48-5.84,2.48a7.43,7.43,0,0,1-4.83-1.49,5,5,0,0,1-1.82-4.1q0-5.1,7.15-5.7l2.87-.25q2.37-.24,2.37-1.8c0-1.23-.93-1.84-2.8-1.84a4.17,4.17,0,0,0-2.39.51,2.58,2.58,0,0,0-.83,1.89h-5.48q.5-6.33,8.74-6.33t8.14,5.63V65.6a6,6,0,0,0,.74,3.37Zm-1.66-4.27a3.71,3.71,0,0,0,1.1-2.92V60.44a3,3,0,0,1-1.84.7l-2.27.25c-1.77.19-2.65.92-2.65,2.2a1.84,1.84,0,0,0,.71,1.52,3.13,3.13,0,0,0,2,.56A4.3,4.3,0,0,0,178.93,64.7Z"/><path d="M203.28,52A6.83,6.83,0,0,1,205,57V69h-5.52V58.1c0-2.08-1-3.11-2.94-3.11a3.35,3.35,0,0,0-2.47,1,3.77,3.77,0,0,0-1,2.79V69h-5.53V50.7h5.38v2.59a6.67,6.67,0,0,1,5.74-3A6.18,6.18,0,0,1,203.28,52Z"/><path d="M222.31,64.86V69h-16V65.5l6.48-8c.82-1,1.58-1.92,2.26-2.73-.54,0-1.77,0-3.68,0h-5V50.7H222v3.47l-6.48,8c-.82,1-1.58,1.92-2.26,2.73.54,0,1.77,0,3.68,0Z"/><path d="M235.81,69a4.9,4.9,0,0,1-.46-2.06q-1.83,2.48-5.84,2.48a7.43,7.43,0,0,1-4.83-1.49,5,5,0,0,1-1.82-4.1q0-5.1,7.15-5.7l2.87-.25q2.37-.24,2.37-1.8c0-1.23-.93-1.84-2.8-1.84a4.17,4.17,0,0,0-2.39.51,2.58,2.58,0,0,0-.83,1.89h-5.48q.5-6.33,8.74-6.33t8.14,5.63V65.6a6,6,0,0,0,.74,3.37Zm-1.66-4.27a3.71,3.71,0,0,0,1.1-2.92V60.44a3,3,0,0,1-1.84.7l-2.27.25c-1.77.19-2.65.92-2.65,2.2a1.84,1.84,0,0,0,.71,1.52,3.13,3.13,0,0,0,2,.56A4.3,4.3,0,0,0,234.15,64.7Z"/><path d="M97,86.63H91.26v3h5.13v1.41H91.26v4.84H89.64V85.19H97Z"/><path d="M99.08,95a4.12,4.12,0,0,1-1.14-3.12V85.19h1.61v6.72a2.85,2.85,0,0,0,.7,2.1,3.24,3.24,0,0,0,4,0,2.85,2.85,0,0,0,.7-2.1V85.19h1.61V91.9A4.12,4.12,0,0,1,105.47,95a5.15,5.15,0,0,1-6.39,0Z"/><path d="M115.52,85.19h1.55V95.91h-1.85l-3.3-5.2c-1-1.51-1.66-2.65-2.09-3.45,0,1.2.06,3,.06,5.39v3.26h-1.57V85.19h1.86l3.31,5.19c.89,1.41,1.59,2.57,2.09,3.46q-.06-1.8-.06-5.4Z"/><path d="M122.78,85.19a5.26,5.26,0,0,1,3.91,1.43,6.2,6.2,0,0,1,0,7.85,5.26,5.26,0,0,1-3.91,1.44H119V85.19Zm0,9.3a3.47,3.47,0,0,0,2.7-1,5,5,0,0,0,0-5.85,3.47,3.47,0,0,0-2.7-1h-2.2v7.89Z"/><path d="M136.48,95.91l-1.06-2.79H130.6l-1,2.79h-1.67l4.19-10.72h1.85l4.25,10.72Zm-5.37-4.19h3.78l-.22-.59c-.53-1.32-1.09-2.79-1.67-4.39-.7,1.84-1.25,3.31-1.66,4.39Z"/><path d="M139.41,94.62A5.72,5.72,0,0,1,138,90.54a5.82,5.82,0,0,1,1.4-4.08,4.77,4.77,0,0,1,3.66-1.52,5,5,0,0,1,3.06,1,4.47,4.47,0,0,1,1.64,2.85h-1.63A3.09,3.09,0,0,0,145,87a3.2,3.2,0,0,0-2-.6,3,3,0,0,0-2.47,1.13,5.5,5.5,0,0,0,0,6.09,3,3,0,0,0,2.47,1.13,3.32,3.32,0,0,0,2.08-.71A3,3,0,0,0,146.2,92h1.61a4.38,4.38,0,0,1-1.55,3.1,4.9,4.9,0,0,1-3.21,1.1A4.71,4.71,0,0,1,139.41,94.62Z"/><path d="M149.16,95.91V85.19h1.61V95.91Z"/><path d="M153.63,94.6a6.44,6.44,0,0,1,0-8.12,5.45,5.45,0,0,1,7.59,0,6.48,6.48,0,0,1,0,8.12,5.42,5.42,0,0,1-7.59,0Zm6.39-1a4.44,4.44,0,0,0,1-3,4.52,4.52,0,0,0-1-3,3.58,3.58,0,0,0-5.18,0,4.55,4.55,0,0,0-1,3,4.43,4.43,0,0,0,1,3,3.53,3.53,0,0,0,5.18,0Zm-3.25-9.27,1.3-2.17H160l-1.9,2.17Z"/><path d="M171.26,85.19h1.55V95.91H171l-3.3-5.2c-1-1.51-1.66-2.65-2.09-3.45,0,1.2.06,3,.06,5.39v3.26h-1.57V85.19h1.86l3.31,5.19c.89,1.41,1.59,2.57,2.09,3.46q-.06-1.8-.06-5.4Z"/><path d="M182.38,94.46h5.26v1.45h-6.87V85.19h1.61Z"/><path d="M196.49,86.63h-6v3h5.47v1.41h-5.47v3.39h6v1.45h-7.6V85.19h7.65Z"/><path d="M205.43,95.91l-1.05-2.79h-4.82l-1,2.79h-1.67L201,85.19h1.86l4.24,10.72Zm-5.36-4.19h3.78l-.23-.59c-.53-1.32-1.08-2.79-1.67-4.39-.69,1.84-1.24,3.31-1.65,4.39Z"/><path d="M209.6,94.46h5.25v1.45H208V85.19h1.61Z"/><path d="M221.94,85.19v1.44h-3.55v9.28h-1.64V86.63H213.2V85.19Z"/><path d="M228.94,95.91l-1.05-2.79h-4.82l-1,2.79h-1.67l4.19-10.72h1.85l4.24,10.72Zm-5.36-4.19h3.78l-.22-.59c-.54-1.32-1.09-2.79-1.67-4.39-.7,1.84-1.25,3.31-1.66,4.39Z"/><path d="M235.32,85.19a5.27,5.27,0,0,1,3.92,1.43,6.2,6.2,0,0,1,0,7.85,5.27,5.27,0,0,1-3.92,1.44H231.5V85.19Zm0,9.3a3.5,3.5,0,0,0,2.7-1,5,5,0,0,0,0-5.85,3.5,3.5,0,0,0-2.7-1h-2.2v7.89Z"/><path class="cls-1" d="M34.33,88.93a.84.84,0,0,0-.38-.15,2.15,2.15,0,0,0-.45,0H31.55v2.15h2a1.27,1.27,0,0,0,.88-.28,1.06,1.06,0,0,0,.3-.82,1.37,1.37,0,0,0-.1-.54A.76.76,0,0,0,34.33,88.93Z"/><path class="cls-1" d="M26.36,67.11a4.75,4.75,0,0,0-3.82,1.68,6.72,6.72,0,0,0-1.45,4.61A6.74,6.74,0,0,0,22.54,78a4.77,4.77,0,0,0,3.82,1.67A4.92,4.92,0,0,0,30.22,78a6.79,6.79,0,0,0,1.45-4.61,6.77,6.77,0,0,0-1.45-4.61A4.9,4.9,0,0,0,26.36,67.11Z"/><path class="cls-1" d="M47.43,89.45a1.56,1.56,0,0,0-.7-.52,2.94,2.94,0,0,0-1.15-.19H44.39v4.91h1.19a2.94,2.94,0,0,0,1.15-.19,1.63,1.63,0,0,0,.7-.52,1.85,1.85,0,0,0,.35-.78,4.92,4.92,0,0,0,.09-1,4.82,4.82,0,0,0-.09-1A1.85,1.85,0,0,0,47.43,89.45Z"/><polygon class="cls-1" points="60.1 88.94 59.06 91.9 61.16 91.9 60.13 88.94 60.1 88.94"/><path class="cls-1" d="M68.3,89.45a1.56,1.56,0,0,0-.7-.52,2.91,2.91,0,0,0-1.15-.19H65.27v4.91h1.18a2.91,2.91,0,0,0,1.15-.19,1.63,1.63,0,0,0,.7-.52,1.85,1.85,0,0,0,.35-.78,4.92,4.92,0,0,0,.09-1,4.82,4.82,0,0,0-.09-1A1.85,1.85,0,0,0,68.3,89.45Z"/><polygon class="cls-1" points="73.47 88.94 72.43 91.9 74.53 91.9 73.5 88.94 73.47 88.94"/><polygon class="cls-1" points="19.43 88.94 18.39 91.9 20.48 91.9 19.45 88.94 19.43 88.94"/><path class="cls-1" d="M80.06,32.73c-8.78,9-18.68,18.94-22.12,22.22-2.39,2.28-4.61,3.67-6.06,3.82l-.52,0c-1.61,0-3.23-.75-5.59-2.56a106.07,106.07,0,0,1-9-8L34.7,46.08a112.66,112.66,0,0,1-8.31-9.32c-2.08-2.55-2.85-4.36-2.66-6.22s.89-2.88,3.24-5.24c.15-.12.9-.77,2.55-2.26a3.94,3.94,0,0,1,2.84-1.23h.24A3.9,3.9,0,0,1,35.07,23c1.09,1.06,2.07,2.15,3.44,3.65.86.95,1.86,2.05,3.11,3.39,3.91,4.2,6.2,6.57,7.42,7.67a3.1,3.1,0,0,0,2.1.88,3.57,3.57,0,0,0,2.4-1c4.34-4,16.06-15.64,25.26-24.9a1.8,1.8,0,0,0-.33-2.82,9.53,9.53,0,0,0-4.89-1.34H18.81a9.57,9.57,0,0,0-9.58,9.57V91a9.58,9.58,0,0,0,9.58,9.58H73.58A9.58,9.58,0,0,0,83.16,91V34A1.81,1.81,0,0,0,80.06,32.73ZM21.45,94.63l-.65-1.82H18.06l-.65,1.82H16.17l2.64-6.87h1.28l2.65,6.87ZM29,93.14a2.72,2.72,0,0,1-.61.88,2.65,2.65,0,0,1-.9.57,3.05,3.05,0,0,1-1.15.2,3.12,3.12,0,0,1-2.42-1.05,3.51,3.51,0,0,1-.65-1.15,4.28,4.28,0,0,1-.22-1.4,4.2,4.2,0,0,1,.22-1.38,3.51,3.51,0,0,1,.65-1.15,3.1,3.1,0,0,1,1-.78,3.21,3.21,0,0,1,1.38-.29,3.88,3.88,0,0,1,1.09.16,2.94,2.94,0,0,1,.9.46,2.48,2.48,0,0,1,.63.74,2.61,2.61,0,0,1,.3,1H28a2.41,2.41,0,0,0-.21-.55,1.44,1.44,0,0,0-.35-.43,1.39,1.39,0,0,0-.49-.28,2.06,2.06,0,0,0-1.61.12,1.76,1.76,0,0,0-.65.59,2.66,2.66,0,0,0-.37.84,3.94,3.94,0,0,0,0,1.93,2.66,2.66,0,0,0,.37.84,1.84,1.84,0,0,0,.65.59,1.91,1.91,0,0,0,.95.22,1.58,1.58,0,0,0,.71-.14,1.56,1.56,0,0,0,.53-.38,2,2,0,0,0,.35-.58,2.56,2.56,0,0,0,.16-.7h1.18A3.41,3.41,0,0,1,29,93.14Zm5.89,1.49a1.18,1.18,0,0,1-.16-.49,4.61,4.61,0,0,1,0-.52,4.7,4.7,0,0,0-.06-.81,1.47,1.47,0,0,0-.21-.57,1,1,0,0,0-.42-.33,1.9,1.9,0,0,0-.68-.11H31.55v2.83H30.34V87.76h3.29a2.54,2.54,0,0,1,1.7.49,1.69,1.69,0,0,1,.57,1.36,2,2,0,0,1-.15.82,1.66,1.66,0,0,1-.33.52,1.47,1.47,0,0,1-.38.28l-.28.12v0a1.15,1.15,0,0,1,.34.09,1.2,1.2,0,0,1,.33.25,1.24,1.24,0,0,1,.25.44,1.86,1.86,0,0,1,.1.67,5.35,5.35,0,0,0,.1,1.1,1.43,1.43,0,0,0,.28.71ZM33.74,80.94a9.94,9.94,0,0,1-7.38,2.85A9.92,9.92,0,0,1,19,80.94a10.31,10.31,0,0,1-2.82-7.54A10.31,10.31,0,0,1,19,65.86,9.92,9.92,0,0,1,26.36,63a9.94,9.94,0,0,1,7.38,2.85,10.31,10.31,0,0,1,2.82,7.54A10.31,10.31,0,0,1,33.74,80.94Zm8.4,13.69h-5V87.76h5v1H38.33v1.8h3.46v1H38.33v2h3.81Zm.38-11.29H38V63.46h5.09L48,71.39q2.09,3.47,3.09,5.47Q51,73,51,67.62V63.46h4.5V83.34H50.37l-4.86-7.93C44,72.93,43,71.13,42.41,70q.11,3.83.11,9.19Zm6.37,9.19a3.18,3.18,0,0,1-.54,1.09,2.46,2.46,0,0,1-.94.74,3.25,3.25,0,0,1-1.37.27H43.19V87.76H46a3.25,3.25,0,0,1,1.37.27,2.54,2.54,0,0,1,.94.73,3.23,3.23,0,0,1,.54,1.1,4.75,4.75,0,0,1,.18,1.33A4.82,4.82,0,0,1,48.89,92.53Zm2.45,2.1h-1.2V87.76h1.2Zm4.2,0h-1.2V88.8H52.16v-1h5.57v1H55.54Zm6.58,0-.65-1.82H58.73l-.65,1.82H56.84l2.64-6.87h1.28l2.65,6.87Zm7.65-2.1a3,3,0,0,1-.55,1.09,2.39,2.39,0,0,1-.94.74,3.19,3.19,0,0,1-1.37.27H64.06V87.76h2.85a3.19,3.19,0,0,1,1.37.27,2.46,2.46,0,0,1,.94.73,3.08,3.08,0,0,1,.55,1.1A4.75,4.75,0,0,1,70,91.19,4.82,4.82,0,0,1,69.77,92.53Zm5.72,2.1-.64-1.82H72.1l-.64,1.82H70.22l2.63-6.87h1.28l2.65,6.87Zm1.29-11.29H73.49l-.56-2.63q-2,3.08-6.45,3.08a8.92,8.92,0,0,1-6.93-2.85A10.64,10.64,0,0,1,57,73.4a10.48,10.48,0,0,1,2.7-7.6A9.76,9.76,0,0,1,67,63a10.45,10.45,0,0,1,6.45,1.93,7.56,7.56,0,0,1,3,5.22H71.7a4,4,0,0,0-1.62-2.26,5.29,5.29,0,0,0-3-.81,4.68,4.68,0,0,0-3.81,1.67,7.09,7.09,0,0,0-1.38,4.64A6.86,6.86,0,0,0,63.31,78a5.45,5.45,0,0,0,7.15.63A4.1,4.1,0,0,0,72,75.94H67.62V72.25h9.16Z"/></g></g></svg>